<svg id="Layer_1" data-name="Layer 1" xmlns="http://www.w3.org/2000/svg" viewBox="0 0 119.43 48.9"><path d="M97.4,49.5c-6.9,0-14.5-.3-22-.6-9-.4-17.5-.8-24.4-.6s-21.6.6-33.3.8c-5.3.1-10,.2-13.3.2H4.2c-4-.1-4-4.3-3.9-9.9,0-4,.2-9.6.4-16,.3-5.9.5-12.6.6-19.2L1.4.9,4.7.8a51.54,51.54,0,0,1,10.6.5,14.93,14.93,0,0,0,1.7.2h.2c4.2.1,15.2,0,44.1-.3h.2c3.6.1,7.2-.1,11-.3A136.54,136.54,0,0,1,90.6.9h.2c2.1.3,6.4.3,10.6.4,3.6.1,7.4.1,10.3.3,3.2.2,8,.5,8,4.6V8.9c0,4.7,0,13.6-.2,21.4-.4,14.8-1,17.3-4.3,17.9C110.4,49.2,104.2,49.5,97.4,49.5Z" transform="translate(-0.27 -0.6)" fill="#f7b279"/><path d="M108.3,47.5c-3.3,0-7.8-.2-14-.6a11.31,11.31,0,0,0-1.4-.1c-2.7.1-38.8,0-64.5-.3-22.9.6-23.5,0-23.9-.4l-.2-.2V30.6c0-8.9,0-19,.1-26.6V3.3h7c16.4.7,31.4.4,47.3.2,7.9-.1,16-.2,24.4-.2,11.9,0,21.2.2,26.7.3,2.6.1,4.5.1,5.6.1a.91.91,0,0,1,.8.4c.9.9.9,3.4.8,8.1v2.6c0,2.5,0,5.2.1,8,.1,7.8.2,15.8-.4,22.8C116.6,46.5,115.7,47.5,108.3,47.5ZM92.9,45.3a11.45,11.45,0,0,1,1.5.1c17.1,1.2,20.3.4,20.9-.1.6-6.9.5-14.8.4-22.6,0-2.8-.1-5.5-.1-8V12.1c0-2.6.1-6.2-.4-7-1.1,0-3,0-5.5-.1q-25.5-.42-51,0c-15.9.2-30.9.5-47.3-.3H5.9c-.2,7.6-.1,17.3-.1,25.9V45c1.2.2,5.7.4,22.6-.1C53.5,45.2,90.2,45.3,92.9,45.3Z" transform="translate(-0.27 -0.6)" fill="#333"/></svg>